<mxfile host="app.diagrams.net" modified="2021-10-17T14:40:23.102Z" agent="5.0 (Windows NT 10.0; Win64; x64) AppleWebKit/537.36 (KHTML, like Gecko) Chrome/94.0.4606.81 Safari/537.36" etag="QO7z2YtlixKUjffSBvAH" version="15.5.4" type="github" pages="2">
  <diagram id="T6tlt87h2WFsqKvzCsYf" name="Use case diagram">
    <mxGraphModel dx="2107" dy="797" grid="1" gridSize="10" guides="1" tooltips="1" connect="1" arrows="1" fold="1" page="1" pageScale="1" pageWidth="850" pageHeight="1100" math="0" shadow="0">
      <root>
        <mxCell id="0" />
        <mxCell id="1" parent="0" />
        <object placeholders="1" c4Name="Restaurant Finder" c4Type="SystemScopeBoundary" c4Application="search for restaurants" label="&lt;font style=&quot;font-size: 16px&quot;&gt;&lt;b&gt;&lt;div style=&quot;&quot;&gt;%c4Name%&lt;/div&gt;&lt;/b&gt;&lt;/font&gt;&lt;div style=&quot;&quot;&gt;[%c4Application%]&lt;/div&gt;" id="qsZiCR-ZAtyEgE1aZ6hm-15">
          <mxCell style="rounded=1;fontSize=11;whiteSpace=wrap;html=1;arcSize=20;fillColor=none;strokeColor=#000000;fontColor=#333333;labelBackgroundColor=none;align=center;verticalAlign=top;labelBorderColor=none;spacingTop=0;spacing=10;metaEdit=1;rotatable=0;perimeter=rectanglePerimeter;noLabel=0;labelPadding=0;allowArrows=0;connectable=0;expand=0;recursiveResize=0;editable=1;pointerEvents=0;absoluteArcSize=1;metaData={&quot;c4Type&quot;:{&quot;editable&quot;:false}};points=[[0.25,0,0],[0.5,0,0],[0.75,0,0],[1,0.25,0],[1,0.5,0],[1,0.75,0],[0.75,1,0],[0.5,1,0],[0.25,1,0],[0,0.75,0],[0,0.5,0],[0,0.25,0]];direction=west;" vertex="1" parent="1">
            <mxGeometry x="185" y="50" width="375" height="770" as="geometry" />
          </mxCell>
        </object>
        <mxCell id="qsZiCR-ZAtyEgE1aZ6hm-1" value="User" style="shape=umlActor;html=1;verticalLabelPosition=bottom;verticalAlign=top;align=center;" vertex="1" parent="1">
          <mxGeometry x="-40" y="350" width="30" height="60" as="geometry" />
        </mxCell>
        <mxCell id="qsZiCR-ZAtyEgE1aZ6hm-2" value="Type Restaurant name" style="ellipse;whiteSpace=wrap;html=1;" vertex="1" parent="1">
          <mxGeometry x="300" y="150" width="140" height="70" as="geometry" />
        </mxCell>
        <mxCell id="qsZiCR-ZAtyEgE1aZ6hm-3" value="search restaurant" style="ellipse;whiteSpace=wrap;html=1;" vertex="1" parent="1">
          <mxGeometry x="300" y="230" width="140" height="70" as="geometry" />
        </mxCell>
        <mxCell id="qsZiCR-ZAtyEgE1aZ6hm-4" value="get menu" style="ellipse;whiteSpace=wrap;html=1;" vertex="1" parent="1">
          <mxGeometry x="310" y="370" width="140" height="70" as="geometry" />
        </mxCell>
        <mxCell id="qsZiCR-ZAtyEgE1aZ6hm-5" value="view menu" style="ellipse;whiteSpace=wrap;html=1;" vertex="1" parent="1">
          <mxGeometry x="305" y="490" width="140" height="70" as="geometry" />
        </mxCell>
        <mxCell id="qsZiCR-ZAtyEgE1aZ6hm-6" value="select menu" style="ellipse;whiteSpace=wrap;html=1;" vertex="1" parent="1">
          <mxGeometry x="302.5" y="570" width="140" height="70" as="geometry" />
        </mxCell>
        <mxCell id="qsZiCR-ZAtyEgE1aZ6hm-7" value="get cost" style="ellipse;whiteSpace=wrap;html=1;" vertex="1" parent="1">
          <mxGeometry x="302.5" y="680" width="140" height="70" as="geometry" />
        </mxCell>
        <mxCell id="qsZiCR-ZAtyEgE1aZ6hm-9" value="" style="edgeStyle=none;html=1;endArrow=none;verticalAlign=bottom;rounded=0;entryX=0;entryY=0.5;entryDx=0;entryDy=0;exitX=1;exitY=0.3333333333333333;exitDx=0;exitDy=0;exitPerimeter=0;" edge="1" parent="1" source="qsZiCR-ZAtyEgE1aZ6hm-1" target="qsZiCR-ZAtyEgE1aZ6hm-2">
          <mxGeometry width="160" relative="1" as="geometry">
            <mxPoint x="90" y="300" as="sourcePoint" />
            <mxPoint x="250" y="300" as="targetPoint" />
          </mxGeometry>
        </mxCell>
        <mxCell id="qsZiCR-ZAtyEgE1aZ6hm-11" value="" style="edgeStyle=none;html=1;endArrow=none;verticalAlign=bottom;rounded=0;entryX=0;entryY=0.5;entryDx=0;entryDy=0;exitX=1;exitY=0.3333333333333333;exitDx=0;exitDy=0;exitPerimeter=0;" edge="1" parent="1" source="qsZiCR-ZAtyEgE1aZ6hm-1" target="qsZiCR-ZAtyEgE1aZ6hm-4">
          <mxGeometry width="160" relative="1" as="geometry">
            <mxPoint x="90" y="300" as="sourcePoint" />
            <mxPoint x="250" y="300" as="targetPoint" />
          </mxGeometry>
        </mxCell>
        <mxCell id="qsZiCR-ZAtyEgE1aZ6hm-12" value="" style="edgeStyle=none;html=1;endArrow=none;verticalAlign=bottom;rounded=0;entryX=0;entryY=0.5;entryDx=0;entryDy=0;exitX=1;exitY=0.3333333333333333;exitDx=0;exitDy=0;exitPerimeter=0;" edge="1" parent="1" source="qsZiCR-ZAtyEgE1aZ6hm-1" target="qsZiCR-ZAtyEgE1aZ6hm-5">
          <mxGeometry width="160" relative="1" as="geometry">
            <mxPoint x="90" y="300" as="sourcePoint" />
            <mxPoint x="250" y="300" as="targetPoint" />
          </mxGeometry>
        </mxCell>
        <mxCell id="qsZiCR-ZAtyEgE1aZ6hm-13" value="" style="edgeStyle=none;html=1;endArrow=none;verticalAlign=bottom;rounded=0;entryX=0;entryY=0.5;entryDx=0;entryDy=0;exitX=1;exitY=0.3333333333333333;exitDx=0;exitDy=0;exitPerimeter=0;" edge="1" parent="1" source="qsZiCR-ZAtyEgE1aZ6hm-1" target="qsZiCR-ZAtyEgE1aZ6hm-6">
          <mxGeometry width="160" relative="1" as="geometry">
            <mxPoint x="90" y="300" as="sourcePoint" />
            <mxPoint x="250" y="390" as="targetPoint" />
          </mxGeometry>
        </mxCell>
        <mxCell id="qsZiCR-ZAtyEgE1aZ6hm-14" value="" style="edgeStyle=none;html=1;endArrow=none;verticalAlign=bottom;rounded=0;entryX=0;entryY=0.5;entryDx=0;entryDy=0;exitX=1;exitY=0.3333333333333333;exitDx=0;exitDy=0;exitPerimeter=0;" edge="1" parent="1" source="qsZiCR-ZAtyEgE1aZ6hm-1" target="qsZiCR-ZAtyEgE1aZ6hm-7">
          <mxGeometry width="160" relative="1" as="geometry">
            <mxPoint x="90" y="300" as="sourcePoint" />
            <mxPoint x="220" y="420" as="targetPoint" />
          </mxGeometry>
        </mxCell>
        <mxCell id="qB7T7C8vMd8XMf1_T6Eq-1" value="&amp;lt;&amp;lt;include&amp;gt;&amp;gt;" style="edgeStyle=none;html=1;endArrow=open;verticalAlign=bottom;dashed=1;labelBackgroundColor=none;rounded=0;exitX=0.5;exitY=1;exitDx=0;exitDy=0;" edge="1" parent="1" source="qsZiCR-ZAtyEgE1aZ6hm-4">
          <mxGeometry width="160" relative="1" as="geometry">
            <mxPoint x="290" y="400" as="sourcePoint" />
            <mxPoint x="380" y="490" as="targetPoint" />
          </mxGeometry>
        </mxCell>
        <object placeholders="1" c4Name="" c4Type="ContainerScopeBoundary" c4Application="Menu" label="&lt;font style=&quot;font-size: 12px;&quot;&gt;&lt;span style=&quot;font-size: 12px;&quot;&gt;&lt;div style=&quot;font-size: 12px;&quot;&gt;%c4Name%&lt;/div&gt;&lt;/span&gt;&lt;/font&gt;&lt;div style=&quot;font-size: 12px;&quot;&gt;[%c4Application%]&lt;/div&gt;" id="qB7T7C8vMd8XMf1_T6Eq-2">
          <mxCell style="rounded=1;fontSize=12;whiteSpace=wrap;html=1;arcSize=20;fillColor=none;strokeColor=#666666;fontColor=#333333;labelBackgroundColor=none;align=center;verticalAlign=top;labelBorderColor=none;spacingTop=0;spacing=10;metaEdit=1;rotatable=0;perimeter=rectanglePerimeter;noLabel=0;labelPadding=0;allowArrows=0;connectable=0;expand=0;recursiveResize=0;editable=1;pointerEvents=0;absoluteArcSize=1;metaData={&quot;c4Type&quot;:{&quot;editable&quot;:false}};points=[[0.25,0,0],[0.5,0,0],[0.75,0,0],[1,0.25,0],[1,0.5,0],[1,0.75,0],[0.75,1,0],[0.5,1,0],[0.25,1,0],[0,0.75,0],[0,0.5,0],[0,0.25,0]];fontStyle=1" vertex="1" parent="1">
            <mxGeometry x="210" y="330" width="330" height="330" as="geometry" />
          </mxCell>
        </object>
        <mxCell id="qB7T7C8vMd8XMf1_T6Eq-4" value="" style="edgeStyle=none;html=1;endArrow=none;verticalAlign=bottom;rounded=0;entryX=0;entryY=0.5;entryDx=0;entryDy=0;exitX=1;exitY=0.3333333333333333;exitDx=0;exitDy=0;exitPerimeter=0;" edge="1" parent="1" source="qsZiCR-ZAtyEgE1aZ6hm-1" target="qsZiCR-ZAtyEgE1aZ6hm-3">
          <mxGeometry width="160" relative="1" as="geometry">
            <mxPoint x="-10" y="290" as="sourcePoint" />
            <mxPoint x="150" y="290" as="targetPoint" />
          </mxGeometry>
        </mxCell>
        <object placeholders="1" c4Name="" c4Type="ContainerScopeBoundary" c4Application="Restaurant" label="&lt;font style=&quot;font-size: 12px;&quot;&gt;&lt;span style=&quot;font-size: 12px;&quot;&gt;&lt;div style=&quot;font-size: 12px;&quot;&gt;%c4Name%&lt;/div&gt;&lt;/span&gt;&lt;/font&gt;&lt;div style=&quot;font-size: 12px;&quot;&gt;[%c4Application%]&lt;/div&gt;" id="qB7T7C8vMd8XMf1_T6Eq-5">
          <mxCell style="rounded=1;fontSize=12;whiteSpace=wrap;html=1;arcSize=20;fillColor=none;strokeColor=#666666;fontColor=#333333;labelBackgroundColor=none;align=center;verticalAlign=top;labelBorderColor=none;spacingTop=0;spacing=10;metaEdit=1;rotatable=0;perimeter=rectanglePerimeter;noLabel=0;labelPadding=0;allowArrows=0;connectable=0;expand=0;recursiveResize=0;editable=1;pointerEvents=0;absoluteArcSize=1;metaData={&quot;c4Type&quot;:{&quot;editable&quot;:false}};points=[[0.25,0,0],[0.5,0,0],[0.75,0,0],[1,0.25,0],[1,0.5,0],[1,0.75,0],[0.75,1,0],[0.5,1,0],[0.25,1,0],[0,0.75,0],[0,0.5,0],[0,0.25,0]];fontStyle=1" vertex="1" parent="1">
            <mxGeometry x="210" y="110" width="330" height="210" as="geometry" />
          </mxCell>
        </object>
      </root>
    </mxGraphModel>
  </diagram>
  <diagram id="aj3boNnsnIehhKQ9OAU_" name="Activity diagram">
    <mxGraphModel dx="1927" dy="1783" grid="1" gridSize="10" guides="1" tooltips="1" connect="1" arrows="1" fold="1" page="1" pageScale="1" pageWidth="850" pageHeight="1100" math="0" shadow="0">
      <root>
        <mxCell id="2iKQ1SbmGMNpcekvdPT6-0" />
        <mxCell id="2iKQ1SbmGMNpcekvdPT6-1" parent="2iKQ1SbmGMNpcekvdPT6-0" />
        <mxCell id="fBfiyOL1dfLFgaek3fAn-21" style="edgeStyle=orthogonalEdgeStyle;rounded=0;orthogonalLoop=1;jettySize=auto;html=1;exitX=1;exitY=0.5;exitDx=0;exitDy=0;entryX=0;entryY=0.5;entryDx=0;entryDy=0;" edge="1" parent="2iKQ1SbmGMNpcekvdPT6-1" source="fBfiyOL1dfLFgaek3fAn-0" target="fBfiyOL1dfLFgaek3fAn-3">
          <mxGeometry relative="1" as="geometry" />
        </mxCell>
        <mxCell id="fBfiyOL1dfLFgaek3fAn-0" value="" style="shape=ellipse;html=1;fillColor=#000000;strokeWidth=2;verticalLabelPosition=bottom;verticalAlignment=top;perimeter=ellipsePerimeter;align=center;verticalAlign=top;" vertex="1" parent="2iKQ1SbmGMNpcekvdPT6-1">
          <mxGeometry x="-190" y="60" width="40" height="40" as="geometry" />
        </mxCell>
        <mxCell id="fBfiyOL1dfLFgaek3fAn-10" style="edgeStyle=orthogonalEdgeStyle;rounded=0;orthogonalLoop=1;jettySize=auto;html=1;exitX=0.5;exitY=1;exitDx=0;exitDy=0;entryX=0.567;entryY=0.017;entryDx=0;entryDy=0;entryPerimeter=0;" edge="1" parent="2iKQ1SbmGMNpcekvdPT6-1" source="fBfiyOL1dfLFgaek3fAn-7" target="fBfiyOL1dfLFgaek3fAn-8">
          <mxGeometry relative="1" as="geometry" />
        </mxCell>
        <mxCell id="fBfiyOL1dfLFgaek3fAn-7" value="view restaurant timings and location" style="shape=rect;html=1;rounded=1;whiteSpace=wrap;align=center;strokeColor=#000000;" vertex="1" parent="2iKQ1SbmGMNpcekvdPT6-1">
          <mxGeometry x="620" y="40" width="160" height="80" as="geometry" />
        </mxCell>
        <mxCell id="fBfiyOL1dfLFgaek3fAn-12" style="edgeStyle=orthogonalEdgeStyle;rounded=0;orthogonalLoop=1;jettySize=auto;html=1;exitX=0;exitY=0.5;exitDx=0;exitDy=0;entryX=1;entryY=0.5;entryDx=0;entryDy=0;" edge="1" parent="2iKQ1SbmGMNpcekvdPT6-1" source="fBfiyOL1dfLFgaek3fAn-8" target="fBfiyOL1dfLFgaek3fAn-11">
          <mxGeometry relative="1" as="geometry" />
        </mxCell>
        <mxCell id="fBfiyOL1dfLFgaek3fAn-8" value="get menu" style="shape=rect;html=1;rounded=1;whiteSpace=wrap;align=center;strokeColor=#000000;" vertex="1" parent="2iKQ1SbmGMNpcekvdPT6-1">
          <mxGeometry x="610" y="180" width="160" height="80" as="geometry" />
        </mxCell>
        <mxCell id="fBfiyOL1dfLFgaek3fAn-14" style="edgeStyle=orthogonalEdgeStyle;rounded=0;orthogonalLoop=1;jettySize=auto;html=1;exitX=0;exitY=0.5;exitDx=0;exitDy=0;entryX=1;entryY=0.5;entryDx=0;entryDy=0;" edge="1" parent="2iKQ1SbmGMNpcekvdPT6-1" source="fBfiyOL1dfLFgaek3fAn-11" target="fBfiyOL1dfLFgaek3fAn-13">
          <mxGeometry relative="1" as="geometry" />
        </mxCell>
        <mxCell id="fBfiyOL1dfLFgaek3fAn-11" value="view menu" style="shape=rect;html=1;rounded=1;whiteSpace=wrap;align=center;strokeColor=#000000;" vertex="1" parent="2iKQ1SbmGMNpcekvdPT6-1">
          <mxGeometry x="390" y="180" width="160" height="80" as="geometry" />
        </mxCell>
        <mxCell id="fBfiyOL1dfLFgaek3fAn-37" style="edgeStyle=orthogonalEdgeStyle;rounded=0;orthogonalLoop=1;jettySize=auto;html=1;exitX=0;exitY=0.5;exitDx=0;exitDy=0;entryX=1;entryY=0.5;entryDx=0;entryDy=0;" edge="1" parent="2iKQ1SbmGMNpcekvdPT6-1" source="fBfiyOL1dfLFgaek3fAn-13" target="fBfiyOL1dfLFgaek3fAn-15">
          <mxGeometry relative="1" as="geometry" />
        </mxCell>
        <mxCell id="fBfiyOL1dfLFgaek3fAn-13" value="select menu" style="shape=rect;html=1;rounded=1;whiteSpace=wrap;align=center;strokeColor=#000000;" vertex="1" parent="2iKQ1SbmGMNpcekvdPT6-1">
          <mxGeometry x="160" y="180" width="160" height="80" as="geometry" />
        </mxCell>
        <mxCell id="fBfiyOL1dfLFgaek3fAn-38" style="edgeStyle=orthogonalEdgeStyle;rounded=0;orthogonalLoop=1;jettySize=auto;html=1;exitX=0;exitY=0.5;exitDx=0;exitDy=0;entryX=1;entryY=0.5;entryDx=0;entryDy=0;entryPerimeter=0;" edge="1" parent="2iKQ1SbmGMNpcekvdPT6-1" source="fBfiyOL1dfLFgaek3fAn-15" target="fBfiyOL1dfLFgaek3fAn-17">
          <mxGeometry relative="1" as="geometry" />
        </mxCell>
        <mxCell id="fBfiyOL1dfLFgaek3fAn-15" value="get cost" style="shape=rect;html=1;rounded=1;whiteSpace=wrap;align=center;strokeColor=#000000;" vertex="1" parent="2iKQ1SbmGMNpcekvdPT6-1">
          <mxGeometry x="-80" y="180" width="160" height="80" as="geometry" />
        </mxCell>
        <mxCell id="fBfiyOL1dfLFgaek3fAn-17" value="" style="html=1;shape=mxgraph.sysml.actFinal;strokeWidth=2;verticalLabelPosition=bottom;verticalAlignment=top;align=center;verticalAlign=top;" vertex="1" parent="2iKQ1SbmGMNpcekvdPT6-1">
          <mxGeometry x="-190" y="200" width="40" height="40" as="geometry" />
        </mxCell>
        <mxCell id="fBfiyOL1dfLFgaek3fAn-27" style="edgeStyle=orthogonalEdgeStyle;rounded=0;orthogonalLoop=1;jettySize=auto;html=1;exitX=1;exitY=0.5;exitDx=0;exitDy=0;entryX=0;entryY=0.5;entryDx=0;entryDy=0;" edge="1" parent="2iKQ1SbmGMNpcekvdPT6-1" source="fBfiyOL1dfLFgaek3fAn-3" target="fBfiyOL1dfLFgaek3fAn-5">
          <mxGeometry relative="1" as="geometry" />
        </mxCell>
        <mxCell id="fBfiyOL1dfLFgaek3fAn-3" value="type restaurant name" style="shape=rect;html=1;rounded=1;whiteSpace=wrap;align=center;strokeColor=#000000;" vertex="1" parent="2iKQ1SbmGMNpcekvdPT6-1">
          <mxGeometry x="-80" y="40" width="160" height="80" as="geometry" />
        </mxCell>
        <mxCell id="fBfiyOL1dfLFgaek3fAn-5" value="search restaurant" style="shape=rect;html=1;rounded=1;whiteSpace=wrap;align=center;strokeColor=#000000;" vertex="1" parent="2iKQ1SbmGMNpcekvdPT6-1">
          <mxGeometry x="160" y="40" width="160" height="80" as="geometry" />
        </mxCell>
        <mxCell id="fBfiyOL1dfLFgaek3fAn-28" value="" style="shape=rhombus;html=1;verticalLabelPosition=bottom;verticalAlignment=top;strokeColor=#000000;align=center;verticalAlign=top;" vertex="1" parent="2iKQ1SbmGMNpcekvdPT6-1">
          <mxGeometry x="430" y="60" width="40" height="40" as="geometry" />
        </mxCell>
        <mxCell id="fBfiyOL1dfLFgaek3fAn-29" value="" style="edgeStyle=elbowEdgeStyle;html=1;elbow=horizontal;align=right;verticalAlign=bottom;endArrow=none;rounded=0;labelBackgroundColor=none;startArrow=open;startSize=12;entryX=1;entryY=0.5;entryDx=0;entryDy=0;" edge="1" source="fBfiyOL1dfLFgaek3fAn-28" parent="2iKQ1SbmGMNpcekvdPT6-1" target="fBfiyOL1dfLFgaek3fAn-5">
          <mxGeometry relative="1" as="geometry">
            <mxPoint x="450" y="40" as="targetPoint" />
          </mxGeometry>
        </mxCell>
        <mxCell id="fBfiyOL1dfLFgaek3fAn-30" value="correct restaurant name" style="edgeStyle=elbowEdgeStyle;html=1;elbow=vertical;verticalAlign=bottom;endArrow=open;rounded=0;labelBackgroundColor=none;endSize=12;entryX=0;entryY=0.5;entryDx=0;entryDy=0;" edge="1" source="fBfiyOL1dfLFgaek3fAn-28" parent="2iKQ1SbmGMNpcekvdPT6-1" target="fBfiyOL1dfLFgaek3fAn-7">
          <mxGeometry x="-0.0667" relative="1" as="geometry">
            <mxPoint x="550" y="100" as="targetPoint" />
            <Array as="points">
              <mxPoint x="620" y="80" />
            </Array>
            <mxPoint as="offset" />
          </mxGeometry>
        </mxCell>
        <mxCell id="fBfiyOL1dfLFgaek3fAn-31" value="Wrong restaurant name/search" style="edgeStyle=elbowEdgeStyle;html=1;elbow=vertical;verticalAlign=bottom;endArrow=open;rounded=0;labelBackgroundColor=none;endSize=12;" edge="1" source="fBfiyOL1dfLFgaek3fAn-28" parent="2iKQ1SbmGMNpcekvdPT6-1">
          <mxGeometry relative="1" as="geometry">
            <mxPoint x="450" y="-30" as="targetPoint" />
          </mxGeometry>
        </mxCell>
        <mxCell id="fBfiyOL1dfLFgaek3fAn-36" style="edgeStyle=orthogonalEdgeStyle;rounded=0;orthogonalLoop=1;jettySize=auto;html=1;exitX=0;exitY=0.5;exitDx=0;exitDy=0;entryX=0.5;entryY=0;entryDx=0;entryDy=0;" edge="1" parent="2iKQ1SbmGMNpcekvdPT6-1" source="fBfiyOL1dfLFgaek3fAn-33" target="fBfiyOL1dfLFgaek3fAn-5">
          <mxGeometry relative="1" as="geometry" />
        </mxCell>
        <mxCell id="fBfiyOL1dfLFgaek3fAn-33" value="view custom message- restaurant not found" style="shape=rect;html=1;rounded=1;whiteSpace=wrap;align=center;strokeColor=#000000;" vertex="1" parent="2iKQ1SbmGMNpcekvdPT6-1">
          <mxGeometry x="370" y="-110" width="160" height="80" as="geometry" />
        </mxCell>
      </root>
    </mxGraphModel>
  </diagram>
</mxfile>
